<svg width="24" height="24" viewBox="0 0 24 24" fill="none" xmlns="http://www.w3.org/2000/svg">
    <g clip-path="url(#clip0_2_7187)">
        <path d="M7.48528 15.0195H7.48634C7.48723 15.0195 7.48812 15.0193 7.489 15.0193H19.8293C20.1332 15.0193 20.4003 14.8178 20.4838 14.5257L23.2063 4.9967C23.265 4.79127 23.2239 4.57041 23.0954 4.3999C22.9667 4.22938 22.7655 4.12906 22.5519 4.12906H5.91555L5.429 1.93949C5.3597 1.62806 5.08354 1.40649 4.76449 1.40649H0.680641C0.304693 1.40649 0 1.71119 0 2.08714C0 2.46308 0.304693 2.76778 0.680641 2.76778H4.21856C4.3047 3.15578 6.54692 13.2459 6.67596 13.8264C5.9526 14.1409 5.44513 14.8621 5.44513 15.7C5.44513 16.8259 6.36116 17.7419 7.48705 17.7419H19.8293C20.2053 17.7419 20.51 17.4372 20.51 17.0612C20.51 16.6853 20.2053 16.3806 19.8293 16.3806H7.48705C7.11181 16.3806 6.80641 16.0752 6.80641 15.7C6.80641 15.3253 7.11075 15.0204 7.48528 15.0195ZM21.6495 5.49034L19.3159 13.658H8.03298L6.21794 5.49034H21.6495Z"
              fill="#484848"/>
        <path d="M6.80664 19.7839C6.80664 20.9098 7.72267 21.8258 8.84856 21.8258C9.97446 21.8258 10.8905 20.9098 10.8905 19.7839C10.8905 18.658 9.97446 17.7419 8.84856 17.7419C7.72267 17.7419 6.80664 18.658 6.80664 19.7839ZM8.84856 19.1032C9.2238 19.1032 9.52921 19.4086 9.52921 19.7839C9.52921 20.1591 9.2238 20.4645 8.84856 20.4645C8.47333 20.4645 8.16792 20.1591 8.16792 19.7839C8.16792 19.4086 8.47333 19.1032 8.84856 19.1032Z"
              fill="#484848"/>
        <path d="M16.4258 19.7839C16.4258 20.9098 17.3418 21.8258 18.4677 21.8258C19.5936 21.8258 20.5096 20.9098 20.5096 19.7839C20.5096 18.658 19.5936 17.7419 18.4677 17.7419C17.3418 17.7419 16.4258 18.658 16.4258 19.7839ZM18.4677 19.1032C18.8429 19.1032 19.1483 19.4086 19.1483 19.7839C19.1483 20.1591 18.8429 20.4645 18.4677 20.4645C18.0925 20.4645 17.7871 20.1591 17.7871 19.7839C17.7871 19.4086 18.0925 19.1032 18.4677 19.1032Z"
              fill="#484848"/>
    </g>
    <defs>
        <clipPath id="clip0_2_7187">
            <rect width="23.2326" height="23.2326" fill="white"/>
        </clipPath>
    </defs>
</svg>
