<svg width="27" height="27" viewBox="0 0 27 27" fill="none" xmlns="http://www.w3.org/2000/svg">
    <path fill-rule="evenodd" clip-rule="evenodd"
          d="M19.433 17.1983L26.6064 24.3717C26.8585 24.624 27.0001 24.9661 26.9999 25.3228C26.9998 25.6795 26.858 26.0215 26.6057 26.2737C26.3534 26.5258 26.0112 26.6674 25.6546 26.6672C25.2979 26.6671 24.9558 26.5253 24.7037 26.273L17.5304 19.0997C15.386 20.7606 12.6894 21.5422 9.98919 21.2855C7.28899 21.0288 4.788 19.753 2.995 17.7178C1.202 15.6826 0.251678 13.0407 0.33736 10.3297C0.423042 7.6187 1.53829 5.04214 3.45623 3.1242C5.37417 1.20626 7.95073 0.0910103 10.6618 0.00532843C13.3728 -0.0803534 16.0146 0.869969 18.0498 2.66297C20.0851 4.45597 21.3608 6.95696 21.6175 9.65716C21.8742 12.3574 21.0926 15.0539 19.4317 17.1983H19.433ZM10.9997 18.6663C13.1214 18.6663 15.1563 17.8235 16.6565 16.3232C18.1568 14.8229 18.9997 12.7881 18.9997 10.6663C18.9997 8.54459 18.1568 6.50976 16.6565 5.00947C15.1563 3.50918 13.1214 2.66633 10.9997 2.66633C8.87796 2.66633 6.84313 3.50918 5.34284 5.00947C3.84255 6.50976 2.99969 8.54459 2.99969 10.6663C2.99969 12.7881 3.84255 14.8229 5.34284 16.3232C6.84313 17.8235 8.87796 18.6663 10.9997 18.6663Z"
          fill="#919191"/>
</svg>
