<svg width="38" height="37" viewBox="0 0 38 37" fill="none" xmlns="http://www.w3.org/2000/svg">
    <path d="M18.5 0C8.29956 0 0 8.29956 0 18.5C0 28.7004 8.29956 37 18.5 37C28.7004 37 37 28.7004 37 18.5C37 8.29956 28.7004 0 18.5 0ZM18.5 34.6875C9.57375 34.6875 2.3125 27.4263 2.3125 18.5C2.3125 9.57375 9.57375 2.3125 18.5 2.3125C27.4263 2.3125 34.6875 9.57375 34.6875 18.5C34.6875 27.4263 27.4263 34.6875 18.5 34.6875Z"
          fill="#71B552"/>
    <path d="M20.1562 8.09375H17.8438V24.2812H20.1562V8.09375Z" fill="#71B552"/>
    <path d="M20.1562 26.5938H17.8438V28.9062H20.1562V26.5938Z" fill="#71B552"/>
</svg>
