<svg width="30" height="30" viewBox="0 0 30 30" fill="none" xmlns="http://www.w3.org/2000/svg">
    <path d="M16.1751 15.0001L23.0835 8.09174C23.22 7.93232 23.2913 7.72726 23.2832 7.51753C23.2751 7.3078 23.1882 7.10885 23.0398 6.96044C22.8914 6.81203 22.6924 6.72508 22.4827 6.71698C22.273 6.70888 22.0679 6.78022 21.9085 6.91674L15.0001 13.8251L8.09181 6.90841C7.93489 6.75149 7.72206 6.66333 7.50014 6.66333C7.27822 6.66333 7.06539 6.75149 6.90847 6.90841C6.75155 7.06533 6.6634 7.27816 6.6634 7.50007C6.6634 7.72199 6.75155 7.93482 6.90847 8.09174L13.8251 15.0001L6.90847 21.9084C6.82124 21.9831 6.75039 22.075 6.70037 22.1784C6.65035 22.2818 6.62224 22.3944 6.61781 22.5092C6.61338 22.624 6.63271 22.7384 6.67461 22.8453C6.7165 22.9523 6.78005 23.0494 6.86127 23.1306C6.94248 23.2118 7.0396 23.2754 7.14654 23.3173C7.25348 23.3592 7.36792 23.3785 7.48268 23.3741C7.59745 23.3696 7.71006 23.3415 7.81345 23.2915C7.91684 23.2415 8.00877 23.1706 8.08347 23.0834L15.0001 16.1751L21.9085 23.0834C22.0679 23.2199 22.273 23.2913 22.4827 23.2832C22.6924 23.2751 22.8914 23.1881 23.0398 23.0397C23.1882 22.8913 23.2751 22.6923 23.2832 22.4826C23.2913 22.2729 23.22 22.0678 23.0835 21.9084L16.1751 15.0001Z"
          fill="black"/>
</svg>
