<svg width="23" height="23" viewBox="0 0 23 23" fill="none" xmlns="http://www.w3.org/2000/svg">
    <path d="M17.25 9.34375H15.8125C15.8119 8.77205 15.5846 8.22393 15.1803 7.81968C14.7761 7.41543 14.2279 7.18807 13.6562 7.1875V5.75C14.609 5.75114 15.5224 6.13013 16.1962 6.80385C16.8699 7.47756 17.2489 8.39098 17.25 9.34375Z"
          fill="#484848"/>
    <path d="M20.1255 9.34375H18.688C18.6865 8.00985 18.1559 6.73101 17.2127 5.7878C16.2695 4.84459 14.9906 4.31402 13.6567 4.3125V2.875C15.3718 2.8769 17.016 3.55904 18.2287 4.77175C19.4414 5.98447 20.1236 7.62872 20.1255 9.34375ZM18.688 20.8438H18.5658C4.44236 20.0316 2.43705 8.11469 2.15673 4.47781C2.11292 3.90766 2.29738 3.34346 2.66953 2.9093C3.04169 2.47515 3.57106 2.20659 4.1412 2.16272C4.19822 2.15841 4.25548 2.15625 4.31298 2.15625H8.1008C8.3887 2.15597 8.67005 2.24215 8.90841 2.40362C9.14676 2.56509 9.33115 2.79441 9.43767 3.06188L10.5302 5.75C10.6354 6.0113 10.6615 6.29774 10.6052 6.57375C10.549 6.84976 10.4129 7.10317 10.2139 7.3025L8.68298 8.84781C8.92115 10.2072 9.57163 11.4605 10.5462 12.4376C11.5208 13.4148 12.7724 14.0686 14.1311 14.3103L15.6908 12.765C15.8931 12.5682 16.1489 12.4353 16.4263 12.3829C16.7036 12.3305 16.9903 12.3609 17.2505 12.4703L19.9602 13.5556C20.2236 13.6655 20.4484 13.8513 20.6058 14.0894C20.7633 14.3275 20.8463 14.6071 20.8442 14.8925V18.6875C20.8442 19.2594 20.6171 19.8078 20.2127 20.2122C19.8083 20.6166 19.2599 20.8438 18.688 20.8438ZM4.31298 3.59375C4.2186 3.59347 4.12508 3.61178 4.03776 3.64764C3.95045 3.6835 3.87106 3.7362 3.80412 3.80274C3.73718 3.86928 3.684 3.94836 3.64761 4.03545C3.61123 4.12255 3.59236 4.21596 3.59208 4.31034C3.59208 4.33047 3.5928 4.35035 3.59423 4.37C3.92486 8.625 6.04517 18.6875 18.6449 19.4062C18.8351 19.4176 19.0221 19.353 19.1647 19.2266C19.3073 19.1002 19.3938 18.9223 19.4053 18.7321L19.4067 18.6875V14.8925L16.697 13.8072L14.6342 15.8556L14.2892 15.8125C8.03611 15.0291 7.18798 8.77594 7.18798 8.71125L7.14486 8.36625L9.18611 6.30344L8.10798 3.59375H4.31298Z"
          fill="#484848"/>
</svg>
