<svg width="18" height="18" viewBox="0 0 18 18" fill="none" xmlns="http://www.w3.org/2000/svg">
    <g clip-path="url(#clip0_2_780)">
        <path d="M14.3301 3.08241C13.2377 1.19719 11.2973 0.0454395 9.13962 0.00142383C9.04751 -0.000474609 8.9548 -0.000474609 8.86266 0.00142383C6.70498 0.0454395 4.76464 1.19719 3.67219 3.08241C2.55556 5.0094 2.52501 7.32408 3.59045 9.27424L8.054 17.4441C8.056 17.4477 8.058 17.4513 8.06008 17.4549C8.25646 17.7963 8.60827 18 9.00121 18C9.39412 18 9.74592 17.7962 9.94227 17.4549C9.94435 17.4513 9.94635 17.4477 9.94835 17.4441L14.4119 9.27424C15.4773 7.32408 15.4467 5.0094 14.3301 3.08241ZM9.00114 8.15627C7.6054 8.15627 6.46989 7.02076 6.46989 5.62502C6.46989 4.22928 7.6054 3.09377 9.00114 3.09377C10.3969 3.09377 11.5324 4.22928 11.5324 5.62502C11.5324 7.02076 10.3969 8.15627 9.00114 8.15627Z"
              fill="#71B552"/>
    </g>
    <defs>
        <clipPath id="clip0_2_780">
            <rect width="18" height="18" fill="white"/>
        </clipPath>
    </defs>
</svg>
