<svg width="17" height="19" viewBox="0 0 17 19" fill="none" xmlns="http://www.w3.org/2000/svg">
    <path d="M14.2396 0H2.76043C1.55947 0 0.583344 0.976125 0.583344 2.17708V16.8229C0.583344 18.0239 1.55947 19 2.76043 19H14.2396C15.4406 19 16.4167 18.0239 16.4167 16.8229V2.17708C16.4167 0.976125 15.4406 0 14.2396 0ZM6.74251 14.82C6.97447 15.052 6.97447 15.428 6.74251 15.66C6.62693 15.7755 6.47493 15.8333 6.32293 15.8333C6.17093 15.8333 6.01893 15.7755 5.90334 15.6592L5.33334 15.09L4.76334 15.66C4.64776 15.7755 4.49576 15.8333 4.34376 15.8333C4.19176 15.8333 4.03976 15.7755 3.92418 15.6592C3.69222 15.4272 3.69222 15.0512 3.92418 14.8192L4.49339 14.25L3.92339 13.68C3.69143 13.448 3.69143 13.072 3.92339 12.84C4.15534 12.6081 4.53139 12.6081 4.76334 12.84L5.33334 13.41L5.90334 12.84C6.1353 12.6081 6.51134 12.6081 6.7433 12.84C6.97526 13.072 6.97526 13.448 6.7433 13.68L6.1733 14.25L6.74251 14.82ZM6.32293 10.0938H5.92709V10.4896C5.92709 10.8173 5.66109 11.0833 5.33334 11.0833C5.00559 11.0833 4.73959 10.8173 4.73959 10.4896V10.0938H4.34376C4.01601 10.0938 3.75001 9.82775 3.75001 9.5C3.75001 9.17225 4.01601 8.90625 4.34376 8.90625H4.73959V8.51042C4.73959 8.18267 5.00559 7.91667 5.33334 7.91667C5.66109 7.91667 5.92709 8.18267 5.92709 8.51042V8.90625H6.32293C6.65068 8.90625 6.91668 9.17225 6.91668 9.5C6.91668 9.82775 6.65068 10.0938 6.32293 10.0938ZM12.6563 15.8333H10.6771C10.3493 15.8333 10.0833 15.5673 10.0833 15.2396C10.0833 14.9118 10.3493 14.6458 10.6771 14.6458H12.6563C12.984 14.6458 13.25 14.9118 13.25 15.2396C13.25 15.5673 12.984 15.8333 12.6563 15.8333ZM12.6563 13.8542H10.6771C10.3493 13.8542 10.0833 13.5882 10.0833 13.2604C10.0833 12.9327 10.3493 12.6667 10.6771 12.6667H12.6563C12.984 12.6667 13.25 12.9327 13.25 13.2604C13.25 13.5882 12.984 13.8542 12.6563 13.8542ZM12.6563 10.2917H10.6771C10.3493 10.2917 10.0833 10.0257 10.0833 9.69792C10.0833 9.37017 10.3493 9.10417 10.6771 9.10417H12.6563C12.984 9.10417 13.25 9.37017 13.25 9.69792C13.25 10.0257 12.984 10.2917 12.6563 10.2917ZM14.0417 4.94792C14.0417 5.71188 13.4202 6.33333 12.6563 6.33333H4.34376C3.5798 6.33333 2.95834 5.71188 2.95834 4.94792V3.76042C2.95834 2.99646 3.5798 2.375 4.34376 2.375H12.6563C13.4202 2.375 14.0417 2.99646 14.0417 3.76042V4.94792Z"
          fill="black"/>
</svg>
