<svg width="26" height="26" viewBox="0 0 26 26" fill="none" xmlns="http://www.w3.org/2000/svg">
    <path d="M8.45833 13.6667H3.25C1.52411 13.6667 0.125 15.0658 0.125 16.7917V22C0.125 23.7259 1.52411 25.125 3.25 25.125H8.45833C10.1842 25.125 11.5833 23.7259 11.5833 22V16.7917C11.5833 15.0658 10.1842 13.6667 8.45833 13.6667Z"
          fill="black"/>
    <path d="M22 13.6667H16.7917C15.0658 13.6667 13.6667 15.0658 13.6667 16.7917V22C13.6667 23.7259 15.0658 25.125 16.7917 25.125H22C23.7259 25.125 25.125 23.7259 25.125 22V16.7917C25.125 15.0658 23.7259 13.6667 22 13.6667Z"
          fill="black"/>
    <path d="M8.45833 0.125H3.25C1.52411 0.125 0.125 1.52411 0.125 3.25V8.45833C0.125 10.1842 1.52411 11.5833 3.25 11.5833H8.45833C10.1842 11.5833 11.5833 10.1842 11.5833 8.45833V3.25C11.5833 1.52411 10.1842 0.125 8.45833 0.125Z"
          fill="black"/>
    <path d="M14.7083 6.89583H18.3542V10.5417C18.3542 10.8179 18.4639 11.0829 18.6593 11.2782C18.8546 11.4736 19.1196 11.5833 19.3958 11.5833C19.6721 11.5833 19.9371 11.4736 20.1324 11.2782C20.3278 11.0829 20.4375 10.8179 20.4375 10.5417V6.89583H24.0833C24.3596 6.89583 24.6246 6.78609 24.8199 6.59074C25.0153 6.39539 25.125 6.13043 25.125 5.85417C25.125 5.5779 25.0153 5.31295 24.8199 5.1176C24.6246 4.92225 24.3596 4.8125 24.0833 4.8125H20.4375V1.16667C20.4375 0.890399 20.3278 0.625448 20.1324 0.430097C19.9371 0.234747 19.6721 0.125 19.3958 0.125C19.1196 0.125 18.8546 0.234747 18.6593 0.430097C18.4639 0.625448 18.3542 0.890399 18.3542 1.16667V4.8125H14.7083C14.4321 4.8125 14.1671 4.92225 13.9718 5.1176C13.7764 5.31295 13.6667 5.5779 13.6667 5.85417C13.6667 6.13043 13.7764 6.39539 13.9718 6.59074C14.1671 6.78609 14.4321 6.89583 14.7083 6.89583Z"
          fill="black"/>
</svg>
