<svg width="40" height="28" viewBox="0 0 40 28" fill="none" xmlns="http://www.w3.org/2000/svg">
    <path d="M11 3H39C39.5523 3 40 3.44772 40 4C40 4.55228 39.5523 5 39 5H11V3Z" fill="black"/>
    <path d="M0 4C0 3.44772 0.447715 3 1 3H5V5H1C0.447715 5 0 4.55228 0 4Z" fill="black"/>
    <path d="M12 4C12 6.20914 10.2091 8 8 8C5.79086 8 4 6.20914 4 4C4 1.79086 5.79086 0 8 0C10.2091 0 12 1.79086 12 4ZM5 4C5 5.65685 6.34315 7 8 7C9.65685 7 11 5.65685 11 4C11 2.34315 9.65685 1 8 1C6.34315 1 5 2.34315 5 4Z"
          fill="black"/>
    <path d="M23 13H39C39.5523 13 40 13.4477 40 14C40 14.5523 39.5523 15 39 15H23V13Z" fill="black"/>
    <path d="M0 14C0 13.4477 0.447715 13 1 13H17V15H1C0.447715 15 0 14.5523 0 14Z" fill="black"/>
    <path d="M24 14C24 16.2091 22.2091 18 20 18C17.7909 18 16 16.2091 16 14C16 11.7909 17.7909 10 20 10C22.2091 10 24 11.7909 24 14ZM17 14C17 15.6569 18.3431 17 20 17C21.6569 17 23 15.6569 23 14C23 12.3431 21.6569 11 20 11C18.3431 11 17 12.3431 17 14Z"
          fill="black"/>
    <path d="M35 23H39C39.5523 23 40 23.4477 40 24C40 24.5523 39.5523 25 39 25H35V23Z" fill="black"/>
    <path d="M0 24C0 23.4477 0.447715 23 1 23H29V25H1C0.447716 25 0 24.5523 0 24Z" fill="black"/>
    <path d="M36 24C36 26.2091 34.2091 28 32 28C29.7909 28 28 26.2091 28 24C28 21.7909 29.7909 20 32 20C34.2091 20 36 21.7909 36 24ZM29 24C29 25.6569 30.3431 27 32 27C33.6569 27 35 25.6569 35 24C35 22.3431 33.6569 21 32 21C30.3431 21 29 22.3431 29 24Z"
          fill="black"/>
</svg>
