<svg width="13" height="18" viewBox="0 0 13 18" fill="none" xmlns="http://www.w3.org/2000/svg">
    <path d="M11.5176 3.08241C10.4252 1.19719 8.48484 0.0454395 6.32712 0.00142383C6.23501 -0.000474609 6.1423 -0.000474609 6.05016 0.00142383C3.89248 0.0454395 1.95214 1.19719 0.85969 3.08241C-0.256943 5.0094 -0.287493 7.32408 0.777952 9.27424L5.2415 17.4441C5.2435 17.4477 5.2455 17.4513 5.24758 17.4549C5.44396 17.7963 5.79577 18 6.18871 18C6.58162 18 6.93342 17.7962 7.12977 17.4549C7.13185 17.4513 7.13385 17.4477 7.13585 17.4441L11.5994 9.27424C12.6648 7.32408 12.6342 5.0094 11.5176 3.08241V3.08241ZM6.18864 8.15627C4.7929 8.15627 3.65739 7.02076 3.65739 5.62502C3.65739 4.22928 4.7929 3.09377 6.18864 3.09377C7.58438 3.09377 8.71989 4.22928 8.71989 5.62502C8.71989 7.02076 7.58441 8.15627 6.18864 8.15627Z"
          fill="black"/>
</svg>
