<svg width="21" height="15" viewBox="0 0 21 15" fill="none" xmlns="http://www.w3.org/2000/svg">
    <path d="M0 1.03646C0 0.463541 0.464583 0 1.03646 0H9.38021C9.65509 8.19223e-09 9.91872 0.109198 10.1131 0.303571C10.3075 0.497945 10.4167 0.761572 10.4167 1.03646C10.4167 1.31134 10.3075 1.57497 10.1131 1.76934C9.91872 1.96372 9.65509 2.07292 9.38021 2.07292H1.03646C0.761572 2.07292 0.497945 1.96372 0.303572 1.76934C0.109198 1.57497 0 1.31134 0 1.03646Z"
          fill="black"/>
    <path d="M7.94729e-08 7.29167C7.94729e-08 6.71875 0.464583 6.25521 1.03646 6.25521H19.7969C20.0718 6.25521 20.3354 6.36441 20.5298 6.55878C20.7241 6.75315 20.8333 7.01678 20.8333 7.29167C20.8333 7.56655 20.7241 7.83018 20.5298 8.02456C20.3354 8.21893 20.0718 8.32813 19.7969 8.32813H1.03646C0.761573 8.32813 0.497945 8.21893 0.303572 8.02456C0.109198 7.83018 7.94729e-08 7.56655 7.94729e-08 7.29167Z"
          fill="black"/>
    <path d="M1.03646 12.5104C0.761572 12.5104 0.497945 12.6196 0.303572 12.814C0.109198 13.0084 7.94729e-08 13.272 7.94729e-08 13.5469C7.94729e-08 13.8218 0.109198 14.0854 0.303572 14.2798C0.497945 14.4741 0.761572 14.5833 1.03646 14.5833H13.5469C13.8218 14.5833 14.0854 14.4741 14.2798 14.2798C14.4741 14.0854 14.5833 13.8218 14.5833 13.5469C14.5833 13.272 14.4741 13.0084 14.2798 12.814C14.0854 12.6196 13.8218 12.5104 13.5469 12.5104H1.03646Z"
          fill="black"/>
</svg>
