<svg width="22" height="30" viewBox="0 0 22 30" fill="none" xmlns="http://www.w3.org/2000/svg">
    <path fill-rule="evenodd" clip-rule="evenodd"
          d="M11.8225 23.4181C15.5666 23.4181 18.3763 21.7182 20.6425 18.9594C24.0532 14.8072 20.3832 10.6839 16.8257 11.5755C14.6706 12.1156 12.7991 14.8958 11.0268 14.8958C9.80178 14.8958 8.64019 13.9607 8.64019 12.7651C8.64019 10.6708 9.59037 10.5307 11.67 8.97217L14.4388 6.95887C15.6093 6.08662 15.0814 4.95271 14.0324 4.95271C13.4483 4.95271 10.2545 7.50779 9.77687 7.86986C8.73247 8.66156 7.64659 9.22167 7.04673 10.4547C6.43573 11.71 6.42571 13.3306 7.05271 14.5367C8.1269 16.6033 10.7194 17.6312 13.0619 16.4065C14.4381 15.687 16.4317 13.4752 17.8335 13.4752C18.8696 13.4752 19.9552 14.3978 19.9552 15.4283C19.9552 17.0259 18.9858 17.865 17.9442 18.9128C14.4932 22.3839 8.60512 22.1464 4.86036 18.4253C4.61137 18.178 4.54595 18.0562 4.32827 17.8056C3.61456 16.9842 3.39132 16.5335 2.89278 15.5186C1.35707 12.3915 1.9458 7.92874 4.11143 5.46512C4.33175 5.21451 4.45493 5.02767 4.68276 4.79579C5.84282 3.61433 7.49655 2.69061 9.16851 2.28756C11.9961 1.60593 14.8529 2.38266 16.8487 3.90019C19.9892 6.28745 19.2913 7.70498 20.7509 7.70498C21.2613 7.70498 21.6347 7.27144 21.6347 6.63973C21.6347 6.00691 19.8541 3.7353 19.222 3.20359C16.2644 0.717033 12.8431 -0.623162 8.76517 0.284892C7.7255 0.516346 6.66217 0.911146 5.88193 1.38412C2.82389 3.23841 0.77781 5.83811 0.151781 9.47843C-0.048637 10.6434 -0.0436265 12.0107 0.125894 13.1481C0.513648 15.7505 1.64866 18.0394 3.44643 19.8449C3.79299 20.1929 4.04254 20.4921 4.44616 20.7942C6.64965 22.4431 8.85133 23.4181 11.8225 23.4181ZM5.72313 24.5723C5.72313 25.2516 6.08082 25.3834 6.60483 25.6395C7.0818 25.8726 7.4921 26.0013 8.03142 26.1597C10.6729 26.9359 12.8461 26.857 15.466 26.1891C16.6019 25.8996 17.7453 25.5876 17.7453 24.5723C17.7453 24.0534 17.2894 23.5956 16.7727 23.5956C16.551 23.5956 16.0203 23.8571 15.7904 23.9406C15.3901 24.0858 15.1486 24.1827 14.7222 24.2883C9.91772 25.4798 7.75557 23.5956 6.60692 23.5956C6.11784 23.5956 5.72313 24.1074 5.72313 24.5723ZM12.1762 27.9456C9.06079 27.9456 8.88932 27.4131 7.66788 27.4131C7.19704 27.4131 6.96057 27.9879 6.96057 28.5671C6.96057 29.344 7.94318 29.4906 8.62154 29.651C10.6344 30.1272 12.7851 30.1167 14.8115 29.6157C15.6605 29.4057 16.5076 29.2653 16.5076 28.3007C16.5076 27.782 16.0516 27.3243 15.5353 27.3243C15.1745 27.3243 15.0349 27.4216 14.7506 27.5128C14.0321 27.7429 12.9758 27.9456 12.1762 27.9456Z"
          fill="black"/>
</svg>
