<svg width="26" height="26" viewBox="0 0 26 26" fill="none" xmlns="http://www.w3.org/2000/svg">
    <path d="M20.5368 9.95949H18.6136C18.6129 9.19464 18.3087 8.46135 17.7679 7.92052C17.2271 7.3797 16.4938 7.07553 15.7289 7.07476V5.15162C17.0036 5.15314 18.2256 5.66018 19.1269 6.5615C20.0282 7.46282 20.5353 8.68483 20.5368 9.95949Z"
          fill="black"/>
    <path d="M24.3822 9.95949H22.459C22.457 8.17494 21.7472 6.46406 20.4853 5.2022C19.2234 3.94033 17.5126 3.23051 15.728 3.22848V1.30533C18.0225 1.30788 20.2222 2.22047 21.8446 3.84289C23.467 5.46531 24.3796 7.66505 24.3822 9.95949ZM17.0098 18.1156L19.1637 15.9616C19.452 15.6733 19.8186 15.4758 20.2181 15.3938C20.6175 15.3117 21.0323 15.3487 21.4109 15.5001L24.0341 16.5501C24.4207 16.7048 24.7521 16.9718 24.9856 17.3166C25.219 17.6615 25.3438 18.0684 25.3437 18.4848V23.2552C25.3444 23.5387 25.2872 23.8194 25.1757 24.08C25.0641 24.3407 24.9005 24.5759 24.6949 24.7711C24.4893 24.9663 24.246 25.1176 23.98 25.2155C23.7139 25.3135 23.4306 25.3561 23.1475 25.3408C4.7603 24.1965 1.0467 8.62291 0.357253 2.65923C0.323861 2.36767 0.352572 2.07235 0.4415 1.79269C0.530427 1.51303 0.677555 1.25537 0.873205 1.03665C1.06886 0.817924 1.3086 0.643102 1.57666 0.523679C1.84472 0.404256 2.13502 0.342938 2.42848 0.343758H7.11423C7.53066 0.343745 7.93754 0.468504 8.28238 0.701944C8.62723 0.935383 8.89422 1.26679 9.04892 1.65342L10.098 4.27659C10.2494 4.65524 10.2864 5.06998 10.2043 5.46943C10.1223 5.86888 9.92482 6.23547 9.63644 6.52379L7.48251 8.67771C7.48251 8.67771 8.67679 17.0742 17.0098 18.1156Z"
          fill="black"/>
</svg>
