<svg width="25" height="25" viewBox="0 0 25 25" fill="none" xmlns="http://www.w3.org/2000/svg">
    <path d="M12.5 0C5.60781 0 0 5.60781 0 12.5C0 19.3922 5.60781 25 12.5 25C19.3922 25 25 19.3922 25 12.5C25 5.60781 19.3922 0 12.5 0ZM12.5 23.4375C6.46875 23.4375 1.5625 18.5313 1.5625 12.5C1.5625 6.46875 6.46875 1.5625 12.5 1.5625C18.5313 1.5625 23.4375 6.46875 23.4375 12.5C23.4375 18.5313 18.5313 23.4375 12.5 23.4375Z"
          fill="black"/>
    <path d="M13.6191 5.46875H12.0566V16.4063H13.6191V5.46875Z" fill="black"/>
    <path d="M13.6191 17.9688H12.0566V19.5313H13.6191V17.9688Z" fill="black"/>
</svg>
