<?xml version="1.0" standalone="no"?>
<!DOCTYPE svg PUBLIC "-//W3C//DTD SVG 20010904//EN"
        "http://www.w3.org/TR/2001/REC-SVG-20010904/DTD/svg10.dtd">
<svg version="1.0" xmlns="http://www.w3.org/2000/svg"
     width="600.000000pt" height="600.000000pt" viewBox="0 0 600.000000 600.000000"
     preserveAspectRatio="xMidYMid meet">
    <metadata>
        Created by potrace 1.14, written by Peter Selinger 2001-2017
    </metadata>
    <g transform="translate(0.000000,600.000000) scale(0.100000,-0.100000)"
       fill="#000000" stroke="none">
        <path d="M3743 5470 c-18 -4 -33 -5 -33 -3 0 3 -6 1 -12 -4 -7 -5 -23 -8 -35
-7 -13 0 -23 -2 -23 -7 0 -5 -7 -6 -15 -3 -8 4 -23 3 -32 -1 -10 -5 -22 -9
-28 -10 -59 -14 -94 -27 -98 -38 -4 -9 -6 -9 -6 1 -1 9 -6 9 -18 2 -10 -5 -56
-28 -103 -50 -47 -23 -91 -47 -99 -53 -7 -6 -21 -16 -31 -22 -46 -27 -81 -56
-152 -126 -43 -42 -78 -81 -78 -87 0 -6 -4 -12 -8 -14 -21 -8 -98 -140 -94
-160 1 -5 -2 -8 -7 -8 -5 0 -19 -28 -31 -62 -26 -75 -37 -158 -21 -158 6 0 10
-3 10 -7 -3 -21 3 -31 29 -43 53 -24 86 -30 94 -17 6 9 8 9 8 -2 0 -11 3 -11
15 -1 8 7 15 9 15 4 0 -12 113 -11 122 1 5 6 8 5 8 -4 0 -11 3 -11 15 -1 8 7
15 9 15 4 0 -12 113 -11 122 1 5 6 8 5 8 -4 0 -11 3 -11 15 -1 8 7 15 9 15 4
0 -12 113 -11 122 1 5 6 8 5 8 -4 0 -11 3 -11 15 -1 8 7 15 9 15 4 0 -12 113
-11 122 1 5 6 8 5 8 -4 0 -11 3 -11 15 -1 8 7 15 9 15 4 0 -5 27 -9 60 -9 33
0 60 4 60 10 0 7 3 7 8 0 4 -5 18 -10 32 -10 24 0 24 -1 25 -100 0 -55 -4
-106 -10 -114 -6 -10 -7 -13 0 -9 13 8 13 -211 0 -231 -5 -8 -4 -12 1 -8 12 7
11 -213 -1 -232 -5 -9 -4 -12 1 -8 6 3 9 -30 9 -84 -1 -49 2 -92 7 -95 4 -3 8
-13 8 -22 0 -30 61 -93 109 -114 53 -22 130 -22 176 1 30 15 85 66 85 79 0 5
5 13 12 20 16 16 19 34 20 129 2 75 0 84 -22 103 -30 26 -72 26 -95 0 -14 -15
-19 -39 -21 -86 -2 -75 -17 -110 -49 -118 -32 -8 -87 17 -85 39 0 3 0 6 -1 8
-8 22 -5 67 4 67 8 0 8 3 2 8 -15 10 -15 72 -1 72 8 0 8 3 0 8 -13 9 -13 165
1 174 6 5 4 8 -5 8 -13 0 -13 1 0 10 8 5 10 10 4 10 -6 0 -11 16 -11 35 0 20
4 32 10 28 6 -4 7 -1 1 8 -12 21 -13 119 0 119 8 0 8 3 1 8 -15 10 -15 72 -1
72 7 0 8 3 0 8 -13 9 -13 172 1 172 6 0 5 3 -2 8 -8 5 -8 12 3 26 8 11 14 15
14 10 0 -13 43 -13 52 0 5 7 8 6 8 -3 0 -11 3 -11 15 -1 8 7 15 8 15 3 0 -12
73 -11 82 2 5 6 8 5 8 -4 0 -11 3 -11 15 -1 8 7 15 8 15 3 0 -12 73 -11 82 2
5 6 8 5 8 -4 0 -11 3 -11 15 -1 8 7 15 9 15 4 0 -13 193 -11 202 1 5 6 8 5 8
-4 0 -11 3 -11 15 -1 8 7 15 8 15 3 0 -12 73 -11 82 2 5 6 8 5 8 -4 0 -11 3
-11 15 -1 8 7 15 8 15 3 0 -12 73 -11 82 2 5 6 8 5 8 -4 0 -11 3 -11 15 -1 8
7 15 8 15 3 0 -12 55 -8 101 7 40 13 61 45 65 95 1 27 -43 183 -56 195 -3 3
-16 26 -29 52 -13 26 -32 56 -42 67 -11 11 -19 24 -19 30 0 5 -8 12 -17 16
-64 25 -106 1 -106 -59 0 -21 4 -41 9 -44 11 -9 29 -36 52 -82 9 -19 22 -38
27 -42 6 -4 7 -8 3 -8 -3 0 2 -17 12 -37 10 -21 16 -41 13 -45 -2 -5 -105 -8
-229 -8 l-224 0 -1 28 c-2 35 -5 60 -13 97 -4 17 -8 39 -10 50 -2 11 -9 33
-15 48 -6 15 -10 31 -9 35 7 24 -120 249 -167 295 -16 17 -21 32 -6 23 5 -3
26 -8 47 -12 22 -3 44 -10 49 -14 6 -4 21 -10 35 -12 14 -1 27 -5 30 -8 14
-15 113 -48 132 -45 50 10 72 83 36 118 -15 15 -179 82 -223 92 -16 4 -37 9
-45 12 -8 4 -23 7 -32 8 -10 2 -19 4 -20 5 -2 1 -14 3 -28 5 -14 2 -36 6 -50
10 -37 9 -280 13 -317 5z m167 -167 c70 -49 163 -161 206 -248 16 -33 31 -62
34 -65 3 -3 7 -12 9 -20 2 -8 10 -37 17 -65 15 -51 21 -85 28 -142 l5 -33
-324 0 -324 0 2 50 c1 27 5 50 10 50 4 0 7 8 7 18 0 26 42 162 50 162 4 0 11
12 15 27 11 46 83 144 157 216 39 37 73 67 77 67 4 0 18 -8 31 -17z m-268 -7
c-4 -6 -24 -31 -43 -56 -70 -88 -145 -258 -164 -370 -3 -19 -8 -44 -10 -55 -2
-11 -4 -35 -4 -52 l-1 -33 -223 0 c-123 0 -227 3 -230 6 -3 4 -1 16 5 28 7 11
11 24 10 29 -1 4 2 7 6 7 4 0 8 10 9 22 1 11 6 24 10 27 5 3 14 17 21 31 48
100 190 241 302 301 25 13 47 26 50 30 10 10 78 39 94 39 9 0 16 4 16 9 0 9
63 26 88 24 6 0 12 3 12 7 0 5 8 10 18 12 31 7 42 5 34 -6z"/>
        <path d="M1805 3951 c6 -11 2 -13 -20 -9 -22 5 -34 -1 -56 -23 -31 -32 -32
-43 -30 -199 1 -60 4 -67 33 -95 18 -16 32 -29 33 -27 0 2 8 0 17 -3 10 -4 15
-11 12 -17 -3 -5 -6 -99 -6 -207 l1 -198 -25 -22 c-13 -11 -26 -21 -29 -21 -2
0 -107 -69 -232 -152 -125 -84 -233 -155 -238 -158 -17 -8 -109 -73 -120 -85
-25 -24 -54 -73 -48 -79 3 -3 2 -6 -4 -6 -7 0 -11 -23 -10 -60 1 -33 5 -60 10
-60 4 0 7 -6 5 -12 -8 -35 84 -115 142 -125 55 -9 70 -9 70 -2 0 4 9 6 20 4
11 -2 20 0 20 6 0 5 6 9 14 9 7 0 46 23 87 50 l74 50 5 -469 c3 -258 7 -472
10 -475 3 -3 21 -12 40 -19 28 -13 36 -13 47 -1 8 7 20 17 28 21 17 10 27 93
11 93 -7 0 -7 3 -1 8 13 9 14 242 1 235 -5 -4 -6 -1 -1 6 11 18 12 240 1 234
-5 -4 -6 -1 -1 6 10 16 13 241 3 235 -4 -3 -5 3 -1 12 3 9 7 58 8 108 1 91 9
126 27 126 5 0 24 11 42 25 18 14 38 25 43 25 6 0 13 7 17 15 3 8 10 15 16 15
13 0 112 68 122 83 4 7 8 9 8 5 0 -4 36 17 80 47 45 30 85 55 90 55 4 0 10 4
12 8 4 11 157 112 169 112 5 0 9 4 9 8 0 5 16 17 35 28 19 10 35 22 35 27 0 4
5 5 10 2 6 -3 10 -1 10 4 0 6 6 11 14 11 8 0 16 3 18 8 2 4 30 25 63 47 33 22
62 43 63 48 2 4 8 7 14 7 6 0 33 16 59 35 27 19 53 35 58 35 5 0 11 3 13 8 5
10 66 52 77 52 5 0 11 3 13 8 4 10 65 52 76 52 4 0 18 9 31 21 l22 21 39 -26
c22 -14 44 -26 49 -26 5 0 11 -4 13 -8 4 -10 96 -72 108 -72 4 0 10 -3 12 -7
5 -11 66 -53 77 -53 5 0 11 -4 13 -8 4 -11 97 -72 109 -72 5 0 9 -4 9 -10 0
-5 7 -10 15 -10 8 0 15 -3 15 -8 0 -4 16 -16 35 -26 19 -11 35 -23 35 -28 0
-5 5 -6 10 -3 6 3 10 1 10 -5 0 -6 4 -9 9 -6 5 4 11 2 13 -3 4 -11 168 -121
180 -121 4 0 8 -4 8 -10 0 -5 7 -10 15 -10 8 0 15 -4 15 -10 0 -5 7 -10 15
-10 8 0 15 -3 15 -8 0 -4 20 -18 45 -32 25 -14 45 -28 45 -32 0 -5 6 -8 14 -8
8 0 16 -3 18 -8 3 -8 271 -187 276 -184 1 1 11 -7 22 -18 20 -20 20 -33 20
-879 l0 -858 -707 0 -708 0 1 626 c0 541 -2 629 -15 651 -17 28 -51 64 -51 54
0 -3 -6 -2 -13 4 -8 7 -134 11 -377 11 -312 0 -368 -2 -397 -16 -68 -32 -66
-9 -67 -703 l-1 -625 -79 -2 c-57 -1 -83 3 -93 13 -8 8 -11 14 -6 14 4 0 8 27
8 59 0 33 -3 57 -7 55 -4 -3 -4 5 0 18 11 31 6 138 -8 163 -12 22 -70 50 -70
34 0 -5 -6 -9 -14 -9 -8 0 -22 -10 -30 -22 -13 -18 -16 -53 -16 -174 l0 -152
-83 0 c-46 1 -89 -2 -95 -6 -7 -4 -12 -3 -12 3 0 15 -71 -8 -108 -36 -46 -35
-71 -88 -67 -148 4 -75 32 -118 102 -157 29 -17 130 -18 1644 -18 1103 0 1626
3 1652 11 43 12 102 64 117 104 13 34 13 112 0 120 -6 4 -8 10 -5 15 3 5 -11
27 -31 49 -45 51 -87 63 -219 65 l-100 1 1 28 c0 15 -4 27 -9 27 -4 0 -5 6 -1
12 12 19 12 48 1 48 -6 0 -6 5 0 13 5 6 8 23 6 37 -4 31 -4 39 0 70 2 14 -1
31 -6 38 -6 8 -6 12 2 12 7 0 8 8 1 24 -5 13 -6 26 -4 29 10 10 11 57 2 63 -4
3 -5 10 -1 17 9 15 11 108 2 128 -4 8 -4 21 1 29 5 8 5 21 0 30 -5 9 -5 22 0
30 5 8 5 21 0 30 -5 9 -5 22 0 30 5 8 5 21 -1 31 -5 11 -5 20 0 24 6 3 6 17 1
34 -4 16 -6 32 -3 34 9 10 10 57 1 63 -4 3 -5 10 -2 16 10 16 11 118 1 118 -4
0 -5 6 -1 12 12 19 12 48 1 48 -6 0 -6 5 0 13 5 6 8 23 6 37 -4 31 -4 39 0 70
2 14 -1 31 -6 38 -5 6 -6 12 -1 12 5 0 9 20 9 45 0 25 -4 45 -8 45 -5 0 -5 6
-1 12 12 19 12 48 1 48 -6 0 -6 5 0 13 5 6 8 23 6 37 -4 31 -4 39 0 70 2 14
-1 31 -6 38 -6 8 -5 12 2 12 7 0 9 5 6 10 -3 6 -4 19 0 29 6 19 7 19 39 -2 19
-12 31 -26 28 -31 -3 -5 0 -6 6 -2 6 3 17 0 25 -8 20 -20 106 -60 114 -52 3 3
12 1 19 -5 7 -6 14 -6 18 0 3 5 14 7 25 4 24 -6 90 28 120 62 69 81 65 207 -9
277 -10 9 -108 77 -217 149 -109 73 -201 137 -204 142 -3 5 -10 9 -15 9 -5 1
-136 86 -291 190 -156 103 -288 188 -293 188 -6 0 -8 5 -5 10 3 6 2 10 -4 10
-15 0 -111 62 -111 72 0 5 -4 7 -9 4 -5 -3 -20 5 -35 19 -15 13 -30 25 -34 26
-9 2 -55 32 -62 40 -3 3 -26 18 -52 33 -27 15 -48 32 -48 38 0 5 -4 6 -10 3
-5 -3 -10 -1 -10 6 0 7 -3 10 -6 6 -3 -3 -11 -1 -18 4 -47 39 -60 49 -68 49
-5 0 -18 9 -30 20 -12 11 -28 20 -35 20 -7 0 -13 4 -13 10 0 5 -16 17 -35 26
-19 9 -35 20 -35 24 0 4 -18 15 -40 25 -23 10 -37 22 -33 29 3 6 3 8 -2 4 -4
-4 -14 -3 -21 3 -8 6 -21 9 -29 5 -8 -3 -15 -1 -15 5 0 6 -4 7 -10 4 -5 -3
-20 -8 -31 -10 -12 -3 -29 -11 -39 -20 -9 -8 -23 -15 -30 -15 -7 0 -10 -3 -7
-6 4 -4 -10 -16 -31 -26 -20 -11 -46 -29 -58 -39 -11 -10 -23 -19 -27 -19 -3
0 -56 -34 -116 -75 -61 -41 -115 -75 -121 -75 -5 0 -10 -4 -10 -8 0 -8 -14
-16 -62 -40 -5 -2 -8 3 -8 12 0 14 11 20 32 17 16 -2 56 60 54 84 -2 14 1 25
6 25 5 0 7 4 4 8 -3 5 -6 44 -7 88 -1 43 -6 87 -11 97 -12 24 -72 49 -94 40
-13 -5 -15 -3 -9 7 6 9 4 11 -5 5 -21 -13 -522 -13 -539 0 -12 8 -13 7 -6 -4z
m330 -151 c6 -1 15 -1 20 0 31 8 95 5 95 -4 0 -7 3 -7 8 -1 4 6 21 10 37 10
25 0 31 -4 33 -27 2 -18 -2 -28 -15 -31 -10 -3 -118 -5 -240 -5 -176 0 -225 3
-234 14 -9 11 -9 14 0 14 7 0 9 5 6 10 -3 6 -4 13 -2 18 5 6 266 8 292 2z
m983 -174 c96 -64 178 -116 182 -116 5 0 10 -4 12 -8 3 -8 321 -222 342 -231
6 -2 19 -12 30 -23 11 -10 32 -24 48 -30 15 -7 28 -15 28 -18 0 -3 16 -14 35
-24 19 -11 35 -22 35 -26 0 -4 8 -10 18 -14 20 -6 48 -25 74 -47 10 -9 31 -22
46 -30 15 -8 29 -17 32 -20 9 -10 95 -63 99 -60 2 2 7 -2 10 -7 8 -13 111 -82
122 -82 5 0 9 -4 9 -10 0 -5 7 -10 15 -10 8 0 15 -4 15 -10 0 -5 6 -10 14 -10
8 0 16 -3 18 -8 2 -4 47 -36 101 -71 53 -35 97 -68 97 -73 0 -5 4 -7 9 -3 5 3
16 -2 24 -10 9 -8 18 -15 22 -15 4 0 12 -6 20 -12 7 -7 22 -21 34 -30 26 -22
27 -52 1 -78 -29 -29 -50 -25 -124 24 -36 25 -66 42 -66 39 0 -3 -8 4 -19 15
-10 12 -21 22 -25 22 -3 0 -114 72 -246 160 -132 88 -245 160 -250 160 -6 0
-8 5 -5 10 3 6 0 10 -8 10 -7 0 -38 18 -67 40 -29 22 -60 40 -67 40 -7 0 -13
5 -13 10 0 6 -7 10 -16 10 -8 0 -13 4 -10 9 3 5 -5 12 -19 15 -14 4 -25 11
-25 16 0 6 -7 10 -15 10 -9 0 -18 6 -21 14 -3 8 -16 17 -29 20 -13 3 -30 13
-39 21 -15 15 -145 105 -152 105 -2 0 -22 12 -43 28 -21 15 -47 33 -57 40 -11
7 -41 28 -69 46 -27 19 -65 42 -82 51 -18 10 -33 22 -33 27 0 5 -4 6 -10 3 -5
-3 -10 -2 -10 3 0 4 -18 18 -40 31 -22 12 -40 26 -40 29 0 13 -60 31 -94 27
-30 -2 -140 -65 -158 -90 -5 -7 -8 -7 -8 0 0 7 -3 7 -8 0 -11 -15 -70 -55 -81
-55 -5 0 -11 -4 -13 -8 -4 -11 -157 -112 -169 -112 -5 0 -9 -4 -9 -8 0 -5 -12
-15 -27 -23 -16 -8 -30 -16 -33 -19 -12 -13 -239 -160 -247 -160 -4 0 -14 -9
-21 -20 -7 -12 -17 -18 -22 -15 -6 3 -10 2 -10 -3 0 -5 -12 -15 -27 -23 -16
-8 -37 -22 -47 -31 -11 -10 -26 -18 -33 -18 -7 0 -13 -3 -13 -7 0 -5 -23 -21
-51 -38 -28 -16 -56 -35 -62 -41 -7 -5 -50 -35 -97 -64 -47 -30 -87 -57 -90
-60 -3 -3 -57 -39 -120 -80 -63 -41 -117 -77 -120 -80 -3 -3 -30 -21 -60 -40
-30 -19 -57 -37 -60 -41 -10 -12 -50 -20 -71 -14 -28 9 -42 49 -27 80 6 14 15
25 19 25 4 0 21 12 38 26 17 14 31 23 31 19 0 -3 10 3 22 15 12 11 27 20 34
20 7 0 14 4 16 8 2 5 44 35 93 67 50 33 92 63 93 67 2 4 8 8 13 8 8 0 176 109
227 147 13 10 36 25 50 33 62 36 478 316 489 330 7 8 13 11 13 6 0 -5 9 -1 20
9 11 10 28 23 38 29 32 19 87 55 97 63 6 4 42 28 80 53 39 25 72 48 73 52 2 5
10 8 17 8 7 0 15 3 17 8 2 4 35 27 73 52 39 24 72 47 75 51 10 12 65 38 75 35
6 -2 88 -56 183 -120z m-1012 -29 c4 -3 15 -2 25 4 13 7 19 6 19 -1 0 -6 5 -8
12 -4 27 17 85 3 73 -17 -4 -5 -1 -9 6 -9 10 0 10 -3 1 -12 -8 -8 -9 -15 -1
-25 7 -8 8 -13 1 -13 -11 0 -11 -32 1 -41 7 -5 -266 -191 -291 -197 -7 -2 -10
-8 -7 -13 4 -5 2 -9 -4 -9 -6 0 -10 65 -10 169 -1 153 0 170 16 173 29 5 153
2 159 -5z m515 -1522 c1 -13 1 -1144 0 -1171 l-1 -22 -316 2 -317 1 0 594 c1
402 4 596 11 600 18 11 622 7 623 -4z m-1046 -1335 c2 3 29 3 60 0 31 -3 58
-3 61 2 3 4 14 3 25 -2 10 -6 19 -7 19 -3 0 4 43 6 96 3 53 -3 97 -2 99 1 2 3
29 2 60 -1 31 -3 58 -3 60 0 2 3 29 3 60 0 30 -3 58 -4 61 -1 8 8 34 10 34 3
0 -7 199 -7 206 0 2 2 29 1 59 -2 31 -3 58 -3 60 0 2 3 29 3 60 0 31 -3 58 -3
61 2 3 4 14 3 25 -2 10 -6 19 -7 19 -3 0 4 43 6 96 3 53 -3 97 -2 99 1 2 3 29
2 60 -1 31 -3 58 -3 60 0 2 3 29 3 60 0 30 -3 58 -4 61 -1 8 8 34 10 34 3 0
-7 199 -7 206 0 2 2 29 1 59 -2 31 -3 58 -3 60 0 2 3 29 3 60 0 31 -3 58 -3
61 2 3 4 14 3 25 -2 10 -6 19 -7 19 -3 0 4 43 6 96 3 53 -3 97 -2 99 1 2 3 29
2 60 -1 31 -3 58 -3 60 0 2 3 29 3 60 0 30 -3 58 -4 61 -1 8 8 34 10 34 3 0
-7 199 -7 206 0 2 2 29 1 59 -2 31 -3 58 -3 61 2 3 4 14 4 24 -2 12 -7 20 -6
22 0 4 13 48 -17 48 -33 -1 -44 80 -42 -1617 -43 -879 0 -1603 1 -1610 4 -18
6 -24 31 -13 52 8 16 21 19 75 18 36 -1 67 1 70 3 2 3 30 2 60 -1 31 -3 58 -3
60 0z"/>
        <path d="M3001 1897 c-49 -23 -56 -63 -55 -300 1 -191 -1 -217 -15 -218 -17
-1 -31 -4 -43 -9 -5 -1 -13 -3 -20 -4 -7 0 -16 -14 -21 -31 -12 -43 5 -80 43
-93 22 -8 29 -8 24 0 -5 7 -3 8 6 3 18 -11 100 -14 106 -3 3 4 11 5 17 1 16
-10 218 -10 224 -1 2 5 9 5 16 1 16 -10 227 -10 227 0 0 4 6 5 12 1 16 -10
466 -11 481 -2 6 4 17 2 24 -4 14 -11 27 -1 56 45 10 15 13 27 7 27 -6 0 -8 5
-5 11 4 6 -3 21 -15 34 -16 17 -32 23 -55 21 -23 -1 -36 3 -44 16 -6 10 -8 18
-3 18 4 0 8 25 7 55 0 30 -4 55 -10 55 -6 0 -6 3 0 8 14 9 13 105 0 114 -7 5
-6 8 0 8 9 0 12 148 5 170 -1 3 -3 10 -4 15 -2 21 -33 54 -59 64 -39 15 -874
13 -906 -2z m827 -324 l-3 -196 -363 0 c-199 0 -365 3 -368 6 -11 11 -10 187
1 187 7 0 7 3 0 8 -5 4 -10 48 -10 98 l0 91 373 1 372 0 -2 -195z"/>
    </g>
</svg>
