<svg width="63" height="54" viewBox="0 0 63 54" fill="none" xmlns="http://www.w3.org/2000/svg">
    <path d="M25.2677 10.7224C26.8406 10.0801 27.5002 8.25221 26.7899 6.77012L24.3037 1.68159C23.5933 0.249398 21.8682 -0.393337 20.3461 0.249397C16.0333 2.02791 12.3294 4.34986 9.3866 7.16584C5.78417 10.4754 3.34873 14.2794 2.02953 18.4787C0.710337 22.7278 0 28.5075 0 35.8686V51.0353C0 52.6656 1.36994 53.9995 3.0443 53.9995H22.9845C24.6588 53.9995 26.0288 52.6656 26.0288 51.0353V31.6199C26.0288 29.9891 24.6588 28.6557 22.9845 28.6557H13.4457C13.5471 23.6655 14.7649 19.6643 16.9974 16.6502C18.8239 14.2305 21.5638 12.2544 25.2677 10.7224Z"
          fill="#71B552"/>
    <path d="M61.089 10.7224C62.6619 10.0801 63.321 8.25221 62.6112 6.77012L60.125 1.73149C59.4147 0.298798 57.6896 -0.343443 56.1674 0.298798C51.9054 2.07731 48.2517 4.39926 45.2587 7.16584C41.6557 10.5252 39.1701 14.3293 37.8504 18.5286C36.5312 22.6779 35.8721 28.4586 35.8721 35.8691V51.0358C35.8721 52.6661 37.242 54 38.9164 54H58.8565C60.5309 54 61.9008 52.6661 61.9008 51.0358V31.6204C61.9008 29.9896 60.5309 28.6562 58.8565 28.6562H49.267C49.3685 23.666 50.5867 19.6648 52.8187 16.6507C54.6453 14.2305 57.3851 12.2544 61.089 10.7224Z"
          fill="#71B552"/>
</svg>
