<svg width="45" height="45" viewBox="0 0 45 45" fill="none" xmlns="http://www.w3.org/2000/svg">
    <g clip-path="url(#clip0_2_805)">
        <path d="M14.5898 29.0921H38.4085C38.9984 29.0921 39.5158 28.7021 39.6754 28.1356L44.9492 9.67827C45.0625 9.28036 44.9849 8.85292 44.7353 8.5223C44.4854 8.19271 44.0967 7.99805 43.682 7.99805H11.5463L10.6039 3.75732C10.47 3.15342 9.93439 2.72461 9.31641 2.72461H1.31836C0.589829 2.72461 0 3.31444 0 4.04297C0 4.77184 0.589829 5.36133 1.31836 5.36133H8.25829L13.0191 26.7847C11.6184 27.3937 10.6348 28.788 10.6348 30.4105C10.6348 32.5913 12.4091 34.3656 14.5898 34.3656H38.4085C39.1374 34.3656 39.7269 33.7761 39.7269 33.0472C39.7269 32.3187 39.1374 31.7289 38.4085 31.7289H14.5898C13.8637 31.7289 13.2715 31.138 13.2715 30.4105C13.2715 29.683 13.8637 29.0921 14.5898 29.0921Z"
              fill="#919191"/>
        <path d="M13.2715 38.3206C13.2715 40.5017 15.0458 42.2756 17.2269 42.2756C19.4077 42.2756 21.182 40.5017 21.182 38.3206C21.182 36.1398 19.4077 34.3655 17.2269 34.3655C15.0458 34.3655 13.2715 36.1398 13.2715 38.3206Z"
              fill="#919191"/>
        <path d="M31.8164 38.3206C31.8164 40.5017 33.5907 42.2756 35.7715 42.2756C37.9526 42.2756 39.7266 40.5017 39.7266 38.3206C39.7266 36.1398 37.9526 34.3655 35.7715 34.3655C33.5907 34.3655 31.8164 36.1398 31.8164 38.3206Z"
              fill="#919191"/>
    </g>
    <defs>
        <clipPath id="clip0_2_805">
            <rect width="45" height="45" fill="white"/>
        </clipPath>
    </defs>
</svg>
