<svg width="19" height="19" viewBox="0 0 19 19" fill="none" xmlns="http://www.w3.org/2000/svg">
    <g clip-path="url(#clip0_2_7313)">
        <path d="M15.2402 0H3.76107C2.56011 0 1.58398 0.976125 1.58398 2.17708V16.8229C1.58398 18.0239 2.56011 19 3.76107 19H15.2402C16.4412 19 17.4173 18.0239 17.4173 16.8229V2.17708C17.4173 0.976125 16.4412 0 15.2402 0ZM7.74315 14.82C7.97511 15.052 7.97511 15.428 7.74315 15.66C7.62757 15.7755 7.47557 15.8333 7.32357 15.8333C7.17157 15.8333 7.01957 15.7755 6.90398 15.6592L6.33398 15.09L5.76398 15.66C5.6484 15.7755 5.4964 15.8333 5.3444 15.8333C5.1924 15.8333 5.0404 15.7755 4.92482 15.6592C4.69286 15.4272 4.69286 15.0512 4.92482 14.8192L5.49403 14.25L4.92403 13.68C4.69207 13.448 4.69207 13.072 4.92403 12.84C5.15598 12.6081 5.53203 12.6081 5.76398 12.84L6.33398 13.41L6.90398 12.84C7.13594 12.6081 7.51198 12.6081 7.74394 12.84C7.9759 13.072 7.9759 13.448 7.74394 13.68L7.17394 14.25L7.74315 14.82ZM7.32357 10.0938H6.92773V10.4896C6.92773 10.8173 6.66173 11.0833 6.33398 11.0833C6.00623 11.0833 5.74023 10.8173 5.74023 10.4896V10.0938H5.3444C5.01665 10.0938 4.75065 9.82775 4.75065 9.5C4.75065 9.17225 5.01665 8.90625 5.3444 8.90625H5.74023V8.51042C5.74023 8.18267 6.00623 7.91667 6.33398 7.91667C6.66173 7.91667 6.92773 8.18267 6.92773 8.51042V8.90625H7.32357C7.65132 8.90625 7.91732 9.17225 7.91732 9.5C7.91732 9.82775 7.65132 10.0938 7.32357 10.0938ZM13.6569 15.8333H11.6777C11.35 15.8333 11.084 15.5673 11.084 15.2396C11.084 14.9118 11.35 14.6458 11.6777 14.6458H13.6569C13.9847 14.6458 14.2507 14.9118 14.2507 15.2396C14.2507 15.5673 13.9847 15.8333 13.6569 15.8333ZM13.6569 13.8542H11.6777C11.35 13.8542 11.084 13.5882 11.084 13.2604C11.084 12.9327 11.35 12.6667 11.6777 12.6667H13.6569C13.9847 12.6667 14.2507 12.9327 14.2507 13.2604C14.2507 13.5882 13.9847 13.8542 13.6569 13.8542ZM13.6569 10.2917H11.6777C11.35 10.2917 11.084 10.0257 11.084 9.69792C11.084 9.37017 11.35 9.10417 11.6777 9.10417H13.6569C13.9847 9.10417 14.2507 9.37017 14.2507 9.69792C14.2507 10.0257 13.9847 10.2917 13.6569 10.2917ZM15.0423 4.94792C15.0423 5.71187 14.4209 6.33333 13.6569 6.33333H5.3444C4.58044 6.33333 3.95898 5.71187 3.95898 4.94792V3.76042C3.95898 2.99646 4.58044 2.375 5.3444 2.375H13.6569C14.4209 2.375 15.0423 2.99646 15.0423 3.76042V4.94792Z"
              fill="#484848"/>
    </g>
    <defs>
        <clipPath id="clip0_2_7313">
            <rect width="19" height="19" fill="white"/>
        </clipPath>
    </defs>
</svg>
