<svg width="19" height="19" viewBox="0 0 19 19" fill="none" xmlns="http://www.w3.org/2000/svg">
    <path d="M7.125 10.0938H4.15625C3.17249 10.0938 2.375 10.8912 2.375 11.875V14.8438C2.375 15.8275 3.17249 16.625 4.15625 16.625H7.125C8.10876 16.625 8.90625 15.8275 8.90625 14.8438V11.875C8.90625 10.8912 8.10876 10.0938 7.125 10.0938Z"
          fill="#484848"/>
    <path d="M14.8438 10.0938H11.875C10.8912 10.0938 10.0938 10.8912 10.0938 11.875V14.8438C10.0938 15.8275 10.8912 16.625 11.875 16.625H14.8438C15.8275 16.625 16.625 15.8275 16.625 14.8438V11.875C16.625 10.8912 15.8275 10.0938 14.8438 10.0938Z"
          fill="#484848"/>
    <path d="M7.125 2.375H4.15625C3.17249 2.375 2.375 3.17249 2.375 4.15625V7.125C2.375 8.10876 3.17249 8.90625 4.15625 8.90625H7.125C8.10876 8.90625 8.90625 8.10876 8.90625 7.125V4.15625C8.90625 3.17249 8.10876 2.375 7.125 2.375Z"
          fill="#484848"/>
    <path d="M10.6875 6.23438H12.7656V8.3125C12.7656 8.46997 12.8282 8.621 12.9395 8.73234C13.0509 8.84369 13.2019 8.90625 13.3594 8.90625C13.5168 8.90625 13.6679 8.84369 13.7792 8.73234C13.8906 8.621 13.9531 8.46997 13.9531 8.3125V6.23438H16.0312C16.1887 6.23438 16.3397 6.17182 16.4511 6.06047C16.5624 5.94912 16.625 5.7981 16.625 5.64062C16.625 5.48315 16.5624 5.33213 16.4511 5.22078C16.3397 5.10943 16.1887 5.04688 16.0312 5.04688H13.9531V2.96875C13.9531 2.81128 13.8906 2.66026 13.7792 2.54891C13.6679 2.43756 13.5168 2.375 13.3594 2.375C13.2019 2.375 13.0509 2.43756 12.9395 2.54891C12.8282 2.66026 12.7656 2.81128 12.7656 2.96875V5.04688H10.6875C10.53 5.04688 10.379 5.10943 10.2677 5.22078C10.1563 5.33213 10.0938 5.48315 10.0938 5.64062C10.0938 5.7981 10.1563 5.94912 10.2677 6.06047C10.379 6.17182 10.53 6.23438 10.6875 6.23438Z"
          fill="#484848"/>
</svg>
