<svg width="25" height="25" viewBox="0 0 25 25" fill="none" xmlns="http://www.w3.org/2000/svg">
    <path d="M9.375 13.2812H5.46875C4.17433 13.2812 3.125 14.3306 3.125 15.625V19.5312C3.125 20.8257 4.17433 21.875 5.46875 21.875H9.375C10.6694 21.875 11.7188 20.8257 11.7188 19.5312V15.625C11.7188 14.3306 10.6694 13.2812 9.375 13.2812Z"
          fill="white"/>
    <path d="M19.5312 13.2812H15.625C14.3306 13.2812 13.2812 14.3306 13.2812 15.625V19.5312C13.2812 20.8257 14.3306 21.875 15.625 21.875H19.5312C20.8257 21.875 21.875 20.8257 21.875 19.5312V15.625C21.875 14.3306 20.8257 13.2812 19.5312 13.2812Z"
          fill="white"/>
    <path d="M9.375 3.125H5.46875C4.17433 3.125 3.125 4.17433 3.125 5.46875V9.375C3.125 10.6694 4.17433 11.7188 5.46875 11.7188H9.375C10.6694 11.7188 11.7188 10.6694 11.7188 9.375V5.46875C11.7188 4.17433 10.6694 3.125 9.375 3.125Z"
          fill="white"/>
    <path d="M14.0625 8.20312H16.7969V10.9375C16.7969 11.1447 16.8792 11.3434 17.0257 11.4899C17.1722 11.6364 17.3709 11.7188 17.5781 11.7188C17.7853 11.7188 17.984 11.6364 18.1306 11.4899C18.2771 11.3434 18.3594 11.1447 18.3594 10.9375V8.20312H21.0938C21.301 8.20312 21.4997 8.12081 21.6462 7.9743C21.7927 7.82779 21.875 7.62908 21.875 7.42188C21.875 7.21467 21.7927 7.01596 21.6462 6.86945C21.4997 6.72294 21.301 6.64062 21.0938 6.64062H18.3594V3.90625C18.3594 3.69905 18.2771 3.50034 18.1306 3.35382C17.984 3.20731 17.7853 3.125 17.5781 3.125C17.3709 3.125 17.1722 3.20731 17.0257 3.35382C16.8792 3.50034 16.7969 3.69905 16.7969 3.90625V6.64062H14.0625C13.8553 6.64062 13.6566 6.72294 13.5101 6.86945C13.3636 7.01596 13.2812 7.21467 13.2812 7.42188C13.2812 7.62908 13.3636 7.82779 13.5101 7.9743C13.6566 8.12081 13.8553 8.20312 14.0625 8.20312Z"
          fill="white"/>
</svg>
