<svg width="25" height="25" viewBox="0 0 25 25" fill="none" xmlns="http://www.w3.org/2000/svg">
    <path d="M18.75 10.1562H17.1875C17.1869 9.53484 16.9398 8.93906 16.5003 8.49965C16.0609 8.06025 15.4652 7.81312 14.8438 7.8125V6.25C15.8794 6.25124 16.8722 6.66319 17.6045 7.39548C18.3368 8.12778 18.7488 9.12063 18.75 10.1562Z"
          fill="#484848"/>
    <path d="M21.8743 10.1563H20.3118C20.3101 8.70636 19.7334 7.31632 18.7082 6.29109C17.6829 5.26586 16.2929 4.68916 14.843 4.68751V3.12501C16.7072 3.12707 18.4944 3.86853 19.8126 5.1867C21.1307 6.50486 21.8722 8.29209 21.8743 10.1563ZM15.8844 16.7828L17.6344 15.0328C17.8687 14.7985 18.1665 14.6381 18.491 14.5714C18.8156 14.5048 19.1526 14.5348 19.4602 14.6578L21.5914 15.5109C21.9056 15.6366 22.1748 15.8536 22.3645 16.1337C22.5542 16.4139 22.6555 16.7445 22.6555 17.0828V20.9586C22.6561 21.189 22.6096 21.417 22.5189 21.6288C22.4283 21.8406 22.2954 22.0316 22.1283 22.1902C21.9613 22.3489 21.7636 22.4717 21.5475 22.5513C21.3313 22.6309 21.1012 22.6656 20.8711 22.6531C5.93206 21.7234 2.91488 9.07032 2.35472 4.22501C2.32759 3.98813 2.35092 3.74819 2.42317 3.52097C2.49542 3.29376 2.61496 3.08441 2.77392 2.90671C2.93288 2.729 3.12766 2.58696 3.34545 2.48994C3.56324 2.39291 3.79911 2.34309 4.03753 2.34376H7.84456C8.1829 2.34375 8.51348 2.44511 8.79366 2.63477C9.07383 2.82443 9.29075 3.09369 9.41644 3.40782L10.2688 5.53907C10.3918 5.8467 10.4218 6.18367 10.3552 6.50821C10.2885 6.83275 10.1281 7.1306 9.89378 7.36485L8.14378 9.11485C8.14378 9.11485 9.1141 15.9367 15.8844 16.7828Z"
          fill="#484848"/>
</svg>
