<svg width="25" height="23" viewBox="0 0 25 23" fill="none" xmlns="http://www.w3.org/2000/svg">
    <path d="M8.10547 15.1623H21.3381C21.6658 15.1623 21.9532 14.9456 22.0419 14.6309L24.9718 4.37682C25.0347 4.15575 24.9916 3.91829 24.8529 3.73461C24.7141 3.55151 24.4982 3.44336 24.2678 3.44336H6.4146L5.89104 1.0874C5.81665 0.7519 5.5191 0.513672 5.17578 0.513672H0.732422C0.327683 0.513672 0 0.841354 0 1.24609C0 1.65102 0.327683 1.97852 0.732422 1.97852H4.58794L7.23286 13.8804C6.45466 14.2187 5.9082 14.9933 5.9082 15.8947C5.9082 17.1063 6.89392 18.092 8.10547 18.092H21.3381C21.743 18.092 22.0705 17.7645 22.0705 17.3596C22.0705 16.9548 21.743 16.6271 21.3381 16.6271H8.10547C7.70206 16.6271 7.37305 16.2989 7.37305 15.8947C7.37305 15.4906 7.70206 15.1623 8.10547 15.1623Z"
          fill="black"/>
    <path d="M7.37305 20.2893C7.37305 21.501 8.35876 22.4865 9.5705 22.4865C10.7821 22.4865 11.7678 21.501 11.7678 20.2893C11.7678 19.0777 10.7821 18.092 9.5705 18.092C8.35876 18.092 7.37305 19.0777 7.37305 20.2893Z"
          fill="black"/>
    <path d="M17.6758 20.2892C17.6758 21.5009 18.6615 22.4865 19.873 22.4865C21.0848 22.4865 22.0703 21.5009 22.0703 20.2892C22.0703 19.0777 21.0848 18.0919 19.873 18.0919C18.6615 18.0919 17.6758 19.0777 17.6758 20.2892Z"
          fill="black"/>
</svg>
