<svg width="24" height="21" viewBox="0 0 24 21" fill="none" xmlns="http://www.w3.org/2000/svg">
    <path d="M7.48522 14.0196H7.48628C7.48717 14.0196 7.48806 14.0194 7.48894 14.0194H19.8293C20.1331 14.0194 20.4002 13.8179 20.4837 13.5258L23.2063 3.99679C23.2649 3.79136 23.2238 3.5705 23.0953 3.39999C22.9666 3.22947 22.7654 3.12915 22.5519 3.12915H5.91549L5.42894 0.939577C5.35963 0.628149 5.08348 0.406586 4.76443 0.406586H0.68058C0.304632 0.406586 -6.10352e-05 0.711279 -6.10352e-05 1.08723C-6.10352e-05 1.46318 0.304632 1.76787 0.68058 1.76787H4.2185C4.30464 2.15587 6.54686 12.246 6.6759 12.8265C5.95254 13.141 5.44507 13.8622 5.44507 14.7001C5.44507 15.8259 6.3611 16.742 7.48699 16.742H19.8293C20.2052 16.742 20.5099 16.4373 20.5099 16.0613C20.5099 15.6854 20.2052 15.3807 19.8293 15.3807H7.48699C7.11175 15.3807 6.80635 15.0753 6.80635 14.7001C6.80635 14.3253 7.11069 14.0205 7.48522 14.0196ZM21.6495 4.49043L19.3158 12.6581H8.03292L6.21788 4.49043H21.6495Z"
          fill="black"/>
    <path d="M6.80635 18.7839C6.80635 19.9098 7.72238 20.8258 8.84828 20.8258C9.97417 20.8258 10.8902 19.9098 10.8902 18.7839C10.8902 17.658 9.97417 16.742 8.84828 16.742C7.72238 16.742 6.80635 17.658 6.80635 18.7839ZM8.84828 18.1033C9.22352 18.1033 9.52892 18.4087 9.52892 18.7839C9.52892 19.1591 9.22352 19.4645 8.84828 19.4645C8.47304 19.4645 8.16763 19.1591 8.16763 18.7839C8.16763 18.4087 8.47304 18.1033 8.84828 18.1033Z"
          fill="black"/>
    <path d="M16.4261 18.7839C16.4261 19.9098 17.3421 20.8258 18.468 20.8258C19.5939 20.8258 20.5099 19.9098 20.5099 18.7839C20.5099 17.658 19.5939 16.742 18.468 16.742C17.3421 16.742 16.4261 17.658 16.4261 18.7839ZM18.468 18.1033C18.8432 18.1033 19.1486 18.4087 19.1486 18.7839C19.1486 19.1591 18.8432 19.4645 18.468 19.4645C18.0928 19.4645 17.7874 19.1591 17.7874 18.7839C17.7874 18.4087 18.0928 18.1033 18.468 18.1033Z"
          fill="black"/>
</svg>
