<svg width="25" height="26" viewBox="0 0 25 26" fill="none" xmlns="http://www.w3.org/2000/svg">
    <path d="M14.3369 12.5051L24.6994 2.14261C24.9042 1.90349 25.0112 1.59589 24.9991 1.2813C24.9869 0.966703 24.8565 0.668279 24.6339 0.445661C24.4113 0.223043 24.1128 0.0926267 23.7982 0.0804752C23.4837 0.0683238 23.1761 0.175332 22.9369 0.380115L12.5744 10.7426L2.21193 0.367615C1.97655 0.132235 1.65731 0 1.32443 0C0.991552 0 0.672309 0.132235 0.436929 0.367615C0.20155 0.602994 0.0693147 0.922238 0.0693147 1.25511C0.0693147 1.58799 0.20155 1.90724 0.436929 2.14261L10.8119 12.5051L0.436929 22.8676C0.306077 22.9797 0.199802 23.1176 0.124773 23.2727C0.0497435 23.4277 0.00758086 23.5966 0.000931489 23.7688C-0.00571788 23.9409 0.023289 24.1126 0.0861322 24.273C0.148975 24.4334 0.244298 24.5791 0.366117 24.7009C0.487935 24.8227 0.633619 24.9181 0.794026 24.9809C0.954432 25.0438 1.1261 25.0728 1.29825 25.0661C1.4704 25.0595 1.63931 25.0173 1.79439 24.9423C1.94947 24.8672 2.08737 24.761 2.19943 24.6301L12.5744 14.2676L22.9369 24.6301C23.1761 24.8349 23.4837 24.9419 23.7982 24.9298C24.1128 24.9176 24.4113 24.7872 24.6339 24.5646C24.8565 24.342 24.9869 24.0435 24.9991 23.7289C25.0112 23.4143 24.9042 23.1067 24.6994 22.8676L14.3369 12.5051Z"
          fill="black"/>
</svg>
