<svg width="18" height="14" viewBox="0 0 18 14" fill="none" xmlns="http://www.w3.org/2000/svg">
    <path fill-rule="evenodd" clip-rule="evenodd"
          d="M0.05625 1.81417C0.16967 1.29878 0.448487 0.838615 0.847037 0.509026C1.24559 0.179438 1.74025 -3.55768e-05 2.25 5.28983e-09H15.75C16.2598 -3.55768e-05 16.7544 0.179438 17.153 0.509026C17.5515 0.838615 17.8303 1.29878 17.9438 1.81417L9 7.483L0.05625 1.81417ZM0 3.1465V11.4345L6.52838 7.2835L0 3.1465ZM7.60613 7.96833L0.214875 12.6665C0.397492 13.0658 0.685718 13.4032 1.046 13.6392C1.40629 13.8753 1.82382 14.0004 2.25 14H15.75C16.1761 14.0001 16.5935 13.8747 16.9536 13.6384C17.3136 13.4022 17.6016 13.0647 17.784 12.6653L10.3928 7.96717L9 8.85033L7.60613 7.96717V7.96833ZM11.4716 7.28467L18 11.4345V3.1465L11.4716 7.2835V7.28467Z"
          fill="black"/>
</svg>
